<svg xmlns="http://www.w3.org/2000/svg" width="48" height="48" viewBox="0 0 48 48">
  <g>
      <path d="M23.1 24.1L38.9 7.8c1.2-1.3 3.3-1.2 4.4.3l.8 1.1c.7 1 .7 2.4 0 3.4L27.9 29.4z" fill="#e8e8e8" stroke="#1b1b1b" stroke-width="1.8" stroke-linejoin="round"/>
      <path d="M21.8 27.3 38 18.1c1.6-.9 3.5-.2 4.1 1.5l.5 1.3c.4 1.2-.1 2.4-1.1 3.1l-14.1 9.6z" fill="#cfcfcf" stroke="#1b1b1b" stroke-width="1.8" stroke-linejoin="round"/>
      <circle cx="13.3" cy="27.3" r="6.1" fill="#b63d47" stroke="#1b1b1b" stroke-width="2"/>
      <circle cx="19.3" cy="34.2" r="6.1" fill="#b63d47" stroke="#1b1b1b" stroke-width="2"/>
      <circle cx="13.3" cy="27.3" r="2.2" fill="#151515"/>
      <circle cx="19.3" cy="34.2" r="2.2" fill="#151515"/>
      <circle cx="22.8" cy="25.8" r="1.9" fill="#151515"/>
      <path d="M16.7 30.4 22.1 26M21 33.1 23 26.4" stroke="#1b1b1b" stroke-width="1.8" stroke-linecap="round"/>
  </g>
</svg>
